Coordinates
version=1
nRows=12
nColumns=42
inDegrees=yes

Units are S.I. units (second, meters, Newtons, ...)
If the header above contains a line with 'inDegrees', this indicates whether rotational values are in degrees (yes) or radians (no).

endheader
time	pelvis_tilt	pelvis_list	pelvis_rotation	pelvis_tx	pelvis_ty	pelvis_tz	hip_flexion_r	hip_adduction_r	hip_rotation_r	knee_angle_r	knee_adduction_r	knee_angle_r_beta	ankle_angle_r	subtalar_angle_r	mtp_angle_r	hip_flexion_l	hip_adduction_l	hip_rotation_l	knee_angle_l	knee_adduction_l	knee_angle_l_beta	ankle_angle_l	subtalar_angle_l	mtp_angle_l	lumbar_extension	lumbar_bending	lumbar_rotation	arm_flex_r	arm_add_r	arm_rot_r	elbow_flex_r	pro_sup_r	wrist_flex_r	wrist_dev_r	arm_flex_l	arm_add_l	arm_rot_l	elbow_flex_l	pro_sup_l	wrist_flex_l	wrist_dev_l
      4.25000000	     12.57258108	      0.52393917	      3.12767327	      0.20139529	      0.88459954	     -0.14009632	     -6.57748315	      1.77303925	    -21.23694957	     28.05027534	     -1.69652050	      0.48956966	     25.86239202	     31.36303433	     -7.50181080	     15.99244320	     -2.35947581	     -7.82243428	     31.72615970	     -3.50555976	      0.55372595	     12.28376333	     17.13796600	     -7.50181080	    -30.70408436	      4.44797569	     -2.97166545	      6.41305702	    -11.66700979	     -2.89242424	     49.93243612	     90.00000001	      0.00000000	      0.00000000	     13.93840520	     -9.71600207	     25.51410633	     51.24658251	     90.00000001	      0.00000000	      0.00000000
      4.26000000	     12.60327733	      0.47652906	      3.12877153	      0.20427452	      0.88421071	     -0.14028589	     -6.79276018	      1.83211419	    -21.14132896	     28.13554224	     -1.70238577	      0.49105785	     25.90044606	     31.27566063	     -7.50180322	     16.26391317	     -2.32231685	     -7.89130114	     31.52074382	     -3.36414674	      0.55014076	     12.29187660	     17.16120327	     -7.50180322	    -30.67032304	      4.51193120	     -3.01313238	      6.33963523	    -11.74700608	     -2.87819382	     49.85410030	     90.00000001	      0.00000000	      0.00000000	     13.94995184	     -9.73014419	     25.46415940	     51.25317678	     90.00000001	      0.00000000	      0.00000000
      4.27000000	     12.66634882	      0.40938376	      3.13656303	      0.20734996	      0.88393005	     -0.14049152	     -7.11339188	      1.89303068	    -21.15846644	     28.10953798	     -1.67326339	      0.49060399	     26.09289190	     31.31144629	     -7.50180175	     16.39712398	     -2.29699819	     -7.94387656	     31.17622562	     -3.23883956	      0.54412779	     12.33879350	     17.26717886	     -7.50180175	    -30.65428261	      4.60545074	     -3.06705864	      6.29442203	    -11.82716801	     -2.84243168	     49.66680733	     90.00000001	      0.00000000	      0.00000000	     13.92230894	     -9.72967561	     25.44073293	     51.18820225	     90.00000001	      0.00000000	      0.00000000
      4.28000000	     12.91382854	      0.47228808	      3.08322513	      0.21046765	      0.88405801	     -0.14068369	     -7.69009591	      1.81238244	    -20.97092457	     28.02206947	     -1.54717808	      0.48907738	     26.46182108	     31.27868462	     -7.50178076	     16.13959778	     -2.15275993	     -7.90351719	     30.56399780	     -2.97846417	      0.53344239	     12.32995449	     17.76091551	     -7.50178076	    -30.84392672	      4.55686416	     -3.18689771	      6.43891359	    -11.91266548	     -2.53222834	     49.08298758	     90.00000001	      0.00000000	      0.00000000	     13.90112391	     -9.72656680	     25.16793359	     51.12259896	     90.00000001	      0.00000000	      0.00000000
      4.29000000	     12.92418285	      0.41065384	      3.09416027	      0.21347861	      0.88363211	     -0.14098144	     -7.91202035	      1.85921049	    -20.96071801	     28.07906980	     -1.53651125	      0.49007222	     26.47413966	     31.21281737	     -7.50177509	     16.37675188	     -2.11047808	     -8.01734772	     30.43389301	     -2.87833565	      0.53117164	     12.33958765	     17.72771702	     -7.50177509	    -30.80171765	      4.65281627	     -3.23082631	      6.36542366	    -12.01297845	     -2.53765728	     49.01599506	     90.00000001	      0.00000000	      0.00000000	     13.89709872	     -9.73010053	     25.13951184	     51.13249880	     90.00000001	      0.00000000	      0.00000000
      4.30000000	     12.98522137	      0.33583250	      3.11984215	      0.21661919	      0.88330932	     -0.14132700	     -8.24759449	      1.91064550	    -21.07140615	     28.03586934	     -1.50622238	      0.48931823	     26.62012122	     31.28126544	     -7.50177579	     16.48148945	     -2.07637461	     -8.14262851	     30.20956126	     -2.79127658	      0.52725631	     12.38108278	     17.75253101	     -7.50177579	    -30.79912722	      4.77612498	     -3.28838387	      6.32895968	    -12.11590772	     -2.52845314	     48.83416676	     90.00000001	      0.00000000	      0.00000000	     13.87599930	     -9.71440830	     25.14589346	     51.08274924	     90.00000001	      0.00000000	      0.00000000
      4.31000000	     13.13745536	      0.30698578	      3.08187463	      0.21974160	      0.88318686	     -0.14164896	     -8.68638396	      1.91964082	    -21.08303001	     27.97279218	     -1.48607316	      0.48821732	     26.87623621	     31.41366060	     -7.50176369	     16.38318699	     -2.01851989	     -8.24499385	     29.87819927	     -2.61780263	      0.52147295	     12.35558115	     17.88435675	     -7.50176369	    -30.91220445	      4.84341933	     -3.36239761	      6.48891066	    -12.21281424	     -2.34711333	     48.27058849	     90.00000001	      0.00000000	      0.00000000	     13.82345460	     -9.69456164	     25.04869806	     51.03458651	     90.00000001	      0.00000000	      0.00000000
      4.32000000	     13.13255624	      0.23553633	      3.07429732	      0.22276359	      0.88272138	     -0.14197973	     -8.89728816	      1.95738934	    -21.10850033	     28.01419858	     -1.46182725	      0.48894000	     26.92324376	     31.38838835	     -7.50175897	     16.54030426	     -1.99059936	     -8.39472526	     29.74638986	     -2.52428861	      0.51917244	     12.36385856	     17.84029641	     -7.50175897	    -30.87513842	      4.94092691	     -3.39595606	      6.46327235	    -12.32221900	     -2.34342833	     48.15277344	     90.00000001	      0.00000000	      0.00000000	     13.84288106	     -9.69235477	     25.02488328	     51.04248585	     90.00000001	      0.00000000	      0.00000000
      4.33000000	     13.10051966	      0.16308067	      3.04425509	      0.22574090	      0.88219612	     -0.14239140	     -9.05243490	      1.99372582	    -21.08399571	     28.09398086	     -1.46112049	      0.49033247	     26.94590193	     31.34201873	     -7.50175371	     16.70999708	     -1.95826018	     -8.54047974	     29.64907743	     -2.40858218	      0.51747402	     12.35721487	     17.78222345	     -7.50175371	    -30.83491578	      5.04852393	     -3.41212904	      6.46475344	    -12.44985135	     -2.34874498	     48.04923014	     90.00000001	      0.00000000	      0.00000000	     13.83255550	     -9.67296431	     25.00729194	     51.05840933	     90.00000001	      0.00000000	      0.00000000
      4.34000000	     13.15803662	      0.13441922	      2.78041777	      0.22888391	      0.88190815	     -0.14248068	     -9.29896772	      1.94267464	    -20.99269000	     28.18488364	     -1.50072800	      0.49191902	     27.37561955	     31.54798995	     -7.50172738	     16.61170165	     -1.95240023	     -9.01916317	     29.37025874	     -2.34363511	      0.51260772	     12.25575311	     17.58155723	     -7.50172738	    -30.88184373	      5.00599053	     -3.32959269	      6.75063249	    -12.55072581	     -2.09848582	     47.22329881	     90.00000001	      0.00000000	      0.00000000	     13.78967181	     -9.62824004	     24.90711334	     50.98707079	     90.00000001	      0.00000000	      0.00000000
      4.35000000	     13.09284656	      0.06514789	      2.73737184	      0.23186260	      0.88131278	     -0.14298696	     -9.41080078	      1.96390880	    -20.95971925	     28.27477802	     -1.50450213	      0.49348797	     27.37789333	     31.50878022	     -7.50172232	     16.75235854	     -1.90822091	     -9.16769428	     29.29473250	     -2.23655407	      0.51128954	     12.24640307	     17.51494948	     -7.50172232	    -30.82801330	      5.12385454	     -3.34478292	      6.77013628	    -12.70230704	     -2.12063652	     47.17093181	     90.00000001	      0.00000000	      0.00000000	     13.77781479	     -9.59651142	     24.89818358	     51.01239272	     90.00000001	      0.00000000	      0.00000000
      4.36000000	     13.02068126	     -0.03471716	      2.63573335	      0.23488437	      0.88069492	     -0.14349065	     -9.50689241	      1.98068875	    -20.93312064	     28.38341563	     -1.49991854	      0.49538406	     27.42593907	     31.48719004	     -7.50171707	     16.85159942	     -1.91238231	     -9.38711410	     29.18587649	     -2.15437435	      0.50938964	     12.23161009	     17.40191606	     -7.50171707	    -30.77121357	      5.25689281	     -3.32155644	      6.82810361	    -12.86309153	     -2.13241349	     47.06041438	     90.00000001	      0.00000000	      0.00000000	     13.74046609	     -9.53666975	     24.90147511	     51.02837913	     90.00000001	      0.00000000	      0.00000000
